<mxfile host="Electron" modified="2023-11-04T20:59:24.848Z" agent="Mozilla/5.0 (X11; Linux x86_64) AppleWebKit/537.36 (KHTML, like Gecko) draw.io/22.0.3 Chrome/114.0.5735.289 Electron/25.8.4 Safari/537.36" etag="mtI1eNEGXOvWXqsakWFs" version="22.0.3" type="device">
  <diagram id="HqV30pevLVmH2TonIe_I" name="Page-1">
    <mxGraphModel dx="1195" dy="715" grid="1" gridSize="10" guides="1" tooltips="1" connect="1" arrows="1" fold="1" page="1" pageScale="1" pageWidth="1100" pageHeight="850" math="0" shadow="0">
      <root>
        <mxCell id="0" />
        <mxCell id="1" parent="0" />
        <mxCell id="MGtDL9aF6XLDopK0zCwk-8" style="edgeStyle=orthogonalEdgeStyle;rounded=0;orthogonalLoop=1;jettySize=auto;html=1;entryX=0;entryY=0.25;entryDx=0;entryDy=0;" parent="1" source="MGtDL9aF6XLDopK0zCwk-1" target="MGtDL9aF6XLDopK0zCwk-7" edge="1">
          <mxGeometry relative="1" as="geometry" />
        </mxCell>
        <mxCell id="FMDbmBKh2z-t5FmQWfiG-30" style="edgeStyle=orthogonalEdgeStyle;rounded=0;orthogonalLoop=1;jettySize=auto;html=1;entryX=0.5;entryY=1;entryDx=0;entryDy=0;" parent="1" source="MGtDL9aF6XLDopK0zCwk-1" target="FMDbmBKh2z-t5FmQWfiG-15" edge="1">
          <mxGeometry relative="1" as="geometry">
            <Array as="points">
              <mxPoint x="440" y="350" />
              <mxPoint x="770" y="350" />
            </Array>
          </mxGeometry>
        </mxCell>
        <mxCell id="FMDbmBKh2z-t5FmQWfiG-57" style="edgeStyle=orthogonalEdgeStyle;rounded=0;orthogonalLoop=1;jettySize=auto;html=1;exitX=0.5;exitY=1;exitDx=0;exitDy=0;entryX=0;entryY=0.75;entryDx=0;entryDy=0;" parent="1" source="MGtDL9aF6XLDopK0zCwk-1" target="FMDbmBKh2z-t5FmQWfiG-51" edge="1">
          <mxGeometry relative="1" as="geometry">
            <Array as="points">
              <mxPoint x="440" y="420" />
              <mxPoint x="340" y="420" />
              <mxPoint x="340" y="520" />
            </Array>
          </mxGeometry>
        </mxCell>
        <mxCell id="FMDbmBKh2z-t5FmQWfiG-58" style="edgeStyle=orthogonalEdgeStyle;rounded=0;orthogonalLoop=1;jettySize=auto;html=1;entryX=0;entryY=0.75;entryDx=0;entryDy=0;" parent="1" source="MGtDL9aF6XLDopK0zCwk-1" target="FMDbmBKh2z-t5FmQWfiG-53" edge="1">
          <mxGeometry relative="1" as="geometry">
            <Array as="points">
              <mxPoint x="440" y="420" />
              <mxPoint x="340" y="420" />
              <mxPoint x="340" y="580" />
            </Array>
          </mxGeometry>
        </mxCell>
        <mxCell id="FMDbmBKh2z-t5FmQWfiG-65" style="edgeStyle=orthogonalEdgeStyle;rounded=0;orthogonalLoop=1;jettySize=auto;html=1;exitX=0.5;exitY=1;exitDx=0;exitDy=0;entryX=0;entryY=0.75;entryDx=0;entryDy=0;" parent="1" source="MGtDL9aF6XLDopK0zCwk-1" target="FMDbmBKh2z-t5FmQWfiG-60" edge="1">
          <mxGeometry relative="1" as="geometry">
            <Array as="points">
              <mxPoint x="440" y="420" />
              <mxPoint x="340" y="420" />
              <mxPoint x="340" y="460" />
            </Array>
          </mxGeometry>
        </mxCell>
        <mxCell id="MJMVSWdc8R0oQq0Kkiug-55" style="edgeStyle=orthogonalEdgeStyle;rounded=0;orthogonalLoop=1;jettySize=auto;html=1;entryX=0;entryY=0.5;entryDx=0;entryDy=0;" parent="1" source="MGtDL9aF6XLDopK0zCwk-1" target="MJMVSWdc8R0oQq0Kkiug-53" edge="1">
          <mxGeometry relative="1" as="geometry">
            <Array as="points">
              <mxPoint x="440" y="420" />
              <mxPoint x="340" y="420" />
              <mxPoint x="340" y="650" />
            </Array>
          </mxGeometry>
        </mxCell>
        <mxCell id="MGtDL9aF6XLDopK0zCwk-1" value="Acc" style="rounded=1;whiteSpace=wrap;html=1;" parent="1" vertex="1">
          <mxGeometry x="400" y="370" width="80" height="40" as="geometry" />
        </mxCell>
        <mxCell id="MGtDL9aF6XLDopK0zCwk-9" style="edgeStyle=orthogonalEdgeStyle;rounded=0;orthogonalLoop=1;jettySize=auto;html=1;entryX=0;entryY=0.75;entryDx=0;entryDy=0;" parent="1" source="MGtDL9aF6XLDopK0zCwk-2" target="MGtDL9aF6XLDopK0zCwk-7" edge="1">
          <mxGeometry relative="1" as="geometry">
            <Array as="points">
              <mxPoint x="500" y="450" />
              <mxPoint x="500" y="410" />
            </Array>
          </mxGeometry>
        </mxCell>
        <mxCell id="8APynYQwXsZGjhNRSon1-6" style="edgeStyle=orthogonalEdgeStyle;rounded=0;orthogonalLoop=1;jettySize=auto;html=1;entryX=0;entryY=0.25;entryDx=0;entryDy=0;" parent="1" source="MGtDL9aF6XLDopK0zCwk-2" target="8APynYQwXsZGjhNRSon1-3" edge="1">
          <mxGeometry relative="1" as="geometry">
            <Array as="points">
              <mxPoint x="500" y="450" />
              <mxPoint x="500" y="290" />
            </Array>
          </mxGeometry>
        </mxCell>
        <mxCell id="MJMVSWdc8R0oQq0Kkiug-4" style="edgeStyle=orthogonalEdgeStyle;rounded=0;orthogonalLoop=1;jettySize=auto;html=1;entryX=0;entryY=0.25;entryDx=0;entryDy=0;" parent="1" source="MGtDL9aF6XLDopK0zCwk-2" target="MJMVSWdc8R0oQq0Kkiug-51" edge="1">
          <mxGeometry relative="1" as="geometry">
            <Array as="points">
              <mxPoint x="520" y="450" />
              <mxPoint x="520" y="450" />
            </Array>
          </mxGeometry>
        </mxCell>
        <mxCell id="MGtDL9aF6XLDopK0zCwk-2" value="SP" style="rounded=1;whiteSpace=wrap;html=1;" parent="1" vertex="1">
          <mxGeometry x="400" y="430" width="80" height="40" as="geometry" />
        </mxCell>
        <mxCell id="MGtDL9aF6XLDopK0zCwk-11" style="edgeStyle=orthogonalEdgeStyle;rounded=0;orthogonalLoop=1;jettySize=auto;html=1;entryX=0;entryY=0.25;entryDx=0;entryDy=0;" parent="1" source="MGtDL9aF6XLDopK0zCwk-3" target="rdxqJMFnQv4xC2RsRKWf-6" edge="1">
          <mxGeometry relative="1" as="geometry" />
        </mxCell>
        <mxCell id="8APynYQwXsZGjhNRSon1-7" style="edgeStyle=orthogonalEdgeStyle;rounded=0;orthogonalLoop=1;jettySize=auto;html=1;entryX=0;entryY=0.75;entryDx=0;entryDy=0;" parent="1" source="MGtDL9aF6XLDopK0zCwk-3" target="8APynYQwXsZGjhNRSon1-3" edge="1">
          <mxGeometry relative="1" as="geometry">
            <Array as="points">
              <mxPoint x="510" y="510" />
              <mxPoint x="510" y="310" />
            </Array>
          </mxGeometry>
        </mxCell>
        <mxCell id="MJMVSWdc8R0oQq0Kkiug-12" style="edgeStyle=orthogonalEdgeStyle;rounded=0;orthogonalLoop=1;jettySize=auto;html=1;exitX=0.5;exitY=1;exitDx=0;exitDy=0;entryX=0;entryY=0.75;entryDx=0;entryDy=0;" parent="1" source="MGtDL9aF6XLDopK0zCwk-3" target="MJMVSWdc8R0oQq0Kkiug-9" edge="1">
          <mxGeometry relative="1" as="geometry">
            <mxPoint x="150" y="240.0000000000001" as="targetPoint" />
            <Array as="points">
              <mxPoint x="440" y="540" />
              <mxPoint x="160" y="540" />
              <mxPoint x="160" y="290" />
            </Array>
          </mxGeometry>
        </mxCell>
        <mxCell id="MGtDL9aF6XLDopK0zCwk-3" value="DX" style="rounded=1;whiteSpace=wrap;html=1;" parent="1" vertex="1">
          <mxGeometry x="400" y="490" width="80" height="40" as="geometry" />
        </mxCell>
        <mxCell id="MGtDL9aF6XLDopK0zCwk-12" style="edgeStyle=orthogonalEdgeStyle;rounded=0;orthogonalLoop=1;jettySize=auto;html=1;entryX=0;entryY=0.25;entryDx=0;entryDy=0;" parent="1" source="MGtDL9aF6XLDopK0zCwk-4" target="rdxqJMFnQv4xC2RsRKWf-9" edge="1">
          <mxGeometry relative="1" as="geometry">
            <Array as="points">
              <mxPoint x="490" y="570" />
              <mxPoint x="490" y="530" />
            </Array>
          </mxGeometry>
        </mxCell>
        <mxCell id="FMDbmBKh2z-t5FmQWfiG-1" style="edgeStyle=orthogonalEdgeStyle;rounded=0;orthogonalLoop=1;jettySize=auto;html=1;entryX=0;entryY=0.75;entryDx=0;entryDy=0;" parent="1" source="MGtDL9aF6XLDopK0zCwk-4" target="8APynYQwXsZGjhNRSon1-9" edge="1">
          <mxGeometry relative="1" as="geometry">
            <Array as="points">
              <mxPoint x="490" y="570" />
              <mxPoint x="490" y="250" />
            </Array>
          </mxGeometry>
        </mxCell>
        <mxCell id="MJMVSWdc8R0oQq0Kkiug-15" style="edgeStyle=orthogonalEdgeStyle;rounded=0;orthogonalLoop=1;jettySize=auto;html=1;entryX=0;entryY=0.75;entryDx=0;entryDy=0;" parent="1" source="MGtDL9aF6XLDopK0zCwk-4" target="MJMVSWdc8R0oQq0Kkiug-7" edge="1">
          <mxGeometry relative="1" as="geometry">
            <Array as="points">
              <mxPoint x="440" y="600" />
              <mxPoint x="150" y="600" />
              <mxPoint x="150" y="230" />
            </Array>
          </mxGeometry>
        </mxCell>
        <mxCell id="MGtDL9aF6XLDopK0zCwk-4" value="DY" style="rounded=1;whiteSpace=wrap;html=1;" parent="1" vertex="1">
          <mxGeometry x="400" y="550" width="80" height="40" as="geometry" />
        </mxCell>
        <mxCell id="MJMVSWdc8R0oQq0Kkiug-18" style="edgeStyle=orthogonalEdgeStyle;rounded=0;orthogonalLoop=1;jettySize=auto;html=1;entryX=0.75;entryY=0;entryDx=0;entryDy=0;" parent="1" source="MGtDL9aF6XLDopK0zCwk-5" target="MJMVSWdc8R0oQq0Kkiug-17" edge="1">
          <mxGeometry relative="1" as="geometry" />
        </mxCell>
        <mxCell id="MGtDL9aF6XLDopK0zCwk-5" value="PCH" style="rounded=1;whiteSpace=wrap;html=1;" parent="1" vertex="1">
          <mxGeometry x="220" y="200" width="80" height="40" as="geometry" />
        </mxCell>
        <mxCell id="MJMVSWdc8R0oQq0Kkiug-21" style="edgeStyle=orthogonalEdgeStyle;rounded=0;orthogonalLoop=1;jettySize=auto;html=1;entryX=0.75;entryY=0;entryDx=0;entryDy=0;" parent="1" source="MGtDL9aF6XLDopK0zCwk-6" target="MJMVSWdc8R0oQq0Kkiug-16" edge="1">
          <mxGeometry relative="1" as="geometry" />
        </mxCell>
        <mxCell id="MGtDL9aF6XLDopK0zCwk-6" value="PCL" style="rounded=1;whiteSpace=wrap;html=1;" parent="1" vertex="1">
          <mxGeometry x="220" y="260" width="80" height="40" as="geometry" />
        </mxCell>
        <mxCell id="8APynYQwXsZGjhNRSon1-2" style="edgeStyle=orthogonalEdgeStyle;rounded=0;orthogonalLoop=1;jettySize=auto;html=1;entryX=0.75;entryY=0;entryDx=0;entryDy=0;" parent="1" source="MGtDL9aF6XLDopK0zCwk-7" target="8APynYQwXsZGjhNRSon1-1" edge="1">
          <mxGeometry relative="1" as="geometry" />
        </mxCell>
        <mxCell id="MGtDL9aF6XLDopK0zCwk-7" value="" style="triangle;whiteSpace=wrap;html=1;" parent="1" vertex="1">
          <mxGeometry x="560" y="380" width="20" height="40" as="geometry" />
        </mxCell>
        <mxCell id="FMDbmBKh2z-t5FmQWfiG-26" style="edgeStyle=orthogonalEdgeStyle;rounded=0;orthogonalLoop=1;jettySize=auto;html=1;entryX=0;entryY=0.25;entryDx=0;entryDy=0;" parent="1" source="MGtDL9aF6XLDopK0zCwk-10" target="FMDbmBKh2z-t5FmQWfiG-25" edge="1">
          <mxGeometry relative="1" as="geometry">
            <Array as="points">
              <mxPoint x="850" y="520" />
              <mxPoint x="850" y="430" />
            </Array>
          </mxGeometry>
        </mxCell>
        <mxCell id="MJMVSWdc8R0oQq0Kkiug-3" style="edgeStyle=orthogonalEdgeStyle;rounded=0;orthogonalLoop=1;jettySize=auto;html=1;entryX=0;entryY=0.75;entryDx=0;entryDy=0;" parent="1" source="MGtDL9aF6XLDopK0zCwk-10" target="MJMVSWdc8R0oQq0Kkiug-1" edge="1">
          <mxGeometry relative="1" as="geometry">
            <Array as="points">
              <mxPoint x="700" y="520" />
              <mxPoint x="700" y="500" />
            </Array>
          </mxGeometry>
        </mxCell>
        <mxCell id="MGtDL9aF6XLDopK0zCwk-10" value="" style="triangle;whiteSpace=wrap;html=1;" parent="1" vertex="1">
          <mxGeometry x="660" y="500" width="20" height="40" as="geometry" />
        </mxCell>
        <mxCell id="FMDbmBKh2z-t5FmQWfiG-66" style="edgeStyle=orthogonalEdgeStyle;rounded=0;orthogonalLoop=1;jettySize=auto;html=1;entryX=0;entryY=0.25;entryDx=0;entryDy=0;" parent="1" source="8APynYQwXsZGjhNRSon1-1" target="FMDbmBKh2z-t5FmQWfiG-62" edge="1">
          <mxGeometry relative="1" as="geometry">
            <Array as="points">
              <mxPoint x="1100" y="420" />
              <mxPoint x="1100" y="610" />
              <mxPoint x="290" y="610" />
              <mxPoint x="290" y="380" />
            </Array>
          </mxGeometry>
        </mxCell>
        <mxCell id="FMDbmBKh2z-t5FmQWfiG-68" style="edgeStyle=orthogonalEdgeStyle;rounded=0;orthogonalLoop=1;jettySize=auto;html=1;entryX=0;entryY=0.25;entryDx=0;entryDy=0;" parent="1" source="8APynYQwXsZGjhNRSon1-1" target="FMDbmBKh2z-t5FmQWfiG-60" edge="1">
          <mxGeometry relative="1" as="geometry">
            <Array as="points">
              <mxPoint x="1100" y="420" />
              <mxPoint x="1100" y="610" />
              <mxPoint x="290" y="610" />
              <mxPoint x="290" y="440" />
            </Array>
          </mxGeometry>
        </mxCell>
        <mxCell id="MJMVSWdc8R0oQq0Kkiug-46" style="edgeStyle=orthogonalEdgeStyle;rounded=0;orthogonalLoop=1;jettySize=auto;html=1;entryX=0.5;entryY=1;entryDx=0;entryDy=0;" parent="1" source="8APynYQwXsZGjhNRSon1-1" target="MJMVSWdc8R0oQq0Kkiug-45" edge="1">
          <mxGeometry relative="1" as="geometry" />
        </mxCell>
        <mxCell id="8APynYQwXsZGjhNRSon1-1" value="&lt;font face=&quot;Helvetica&quot;&gt;ALU&lt;/font&gt;" style="shape=offPageConnector;whiteSpace=wrap;html=1;fontFamily=Times New Roman;rotation=-90;" parent="1" vertex="1">
          <mxGeometry x="990.83" y="370" width="80" height="100" as="geometry" />
        </mxCell>
        <mxCell id="FMDbmBKh2z-t5FmQWfiG-47" style="edgeStyle=orthogonalEdgeStyle;rounded=0;orthogonalLoop=1;jettySize=auto;html=1;entryX=0.75;entryY=0;entryDx=0;entryDy=0;" parent="1" source="8APynYQwXsZGjhNRSon1-3" target="FMDbmBKh2z-t5FmQWfiG-46" edge="1">
          <mxGeometry relative="1" as="geometry" />
        </mxCell>
        <mxCell id="8APynYQwXsZGjhNRSon1-3" value="" style="triangle;whiteSpace=wrap;html=1;" parent="1" vertex="1">
          <mxGeometry x="530" y="280" width="20" height="40" as="geometry" />
        </mxCell>
        <mxCell id="8APynYQwXsZGjhNRSon1-10" style="edgeStyle=orthogonalEdgeStyle;rounded=0;orthogonalLoop=1;jettySize=auto;html=1;entryX=0;entryY=0.25;entryDx=0;entryDy=0;exitX=0.88;exitY=0.25;exitDx=0;exitDy=0;exitPerimeter=0;" parent="1" source="8APynYQwXsZGjhNRSon1-8" target="8APynYQwXsZGjhNRSon1-9" edge="1">
          <mxGeometry relative="1" as="geometry">
            <Array as="points">
              <mxPoint x="495" y="230" />
            </Array>
          </mxGeometry>
        </mxCell>
        <mxCell id="8APynYQwXsZGjhNRSon1-8" value="0xFF" style="ellipse;shape=cloud;whiteSpace=wrap;html=1;" parent="1" vertex="1">
          <mxGeometry x="460" y="220" width="40" height="20" as="geometry" />
        </mxCell>
        <mxCell id="MJMVSWdc8R0oQq0Kkiug-43" style="edgeStyle=orthogonalEdgeStyle;rounded=0;orthogonalLoop=1;jettySize=auto;html=1;entryX=0.75;entryY=0;entryDx=0;entryDy=0;" parent="1" source="8APynYQwXsZGjhNRSon1-9" target="MJMVSWdc8R0oQq0Kkiug-40" edge="1">
          <mxGeometry relative="1" as="geometry" />
        </mxCell>
        <mxCell id="8APynYQwXsZGjhNRSon1-9" value="" style="triangle;whiteSpace=wrap;html=1;" parent="1" vertex="1">
          <mxGeometry x="520" y="220" width="20" height="40" as="geometry" />
        </mxCell>
        <mxCell id="FMDbmBKh2z-t5FmQWfiG-24" style="edgeStyle=orthogonalEdgeStyle;rounded=0;orthogonalLoop=1;jettySize=auto;html=1;entryX=0;entryY=0.25;entryDx=0;entryDy=0;" parent="1" source="FMDbmBKh2z-t5FmQWfiG-2" target="FMDbmBKh2z-t5FmQWfiG-22" edge="1">
          <mxGeometry relative="1" as="geometry">
            <Array as="points">
              <mxPoint x="870" y="180" />
              <mxPoint x="870" y="220" />
            </Array>
          </mxGeometry>
        </mxCell>
        <mxCell id="FMDbmBKh2z-t5FmQWfiG-2" value="ROM" style="shape=internalStorage;whiteSpace=wrap;html=1;backgroundOutline=1;" parent="1" vertex="1">
          <mxGeometry x="690" y="140" width="160" height="80" as="geometry" />
        </mxCell>
        <mxCell id="FMDbmBKh2z-t5FmQWfiG-16" style="edgeStyle=orthogonalEdgeStyle;rounded=0;orthogonalLoop=1;jettySize=auto;html=1;entryX=0;entryY=0.75;entryDx=0;entryDy=0;" parent="1" source="FMDbmBKh2z-t5FmQWfiG-9" target="FMDbmBKh2z-t5FmQWfiG-15" edge="1">
          <mxGeometry relative="1" as="geometry" />
        </mxCell>
        <mxCell id="FMDbmBKh2z-t5FmQWfiG-17" style="edgeStyle=orthogonalEdgeStyle;rounded=0;orthogonalLoop=1;jettySize=auto;html=1;entryX=0;entryY=0.75;entryDx=0;entryDy=0;" parent="1" source="FMDbmBKh2z-t5FmQWfiG-9" target="FMDbmBKh2z-t5FmQWfiG-2" edge="1">
          <mxGeometry relative="1" as="geometry">
            <Array as="points">
              <mxPoint x="670" y="300" />
              <mxPoint x="670" y="200" />
            </Array>
          </mxGeometry>
        </mxCell>
        <mxCell id="FMDbmBKh2z-t5FmQWfiG-45" style="edgeStyle=orthogonalEdgeStyle;rounded=0;orthogonalLoop=1;jettySize=auto;html=1;exitX=0;exitY=0.5;exitDx=0;exitDy=0;" parent="1" source="FMDbmBKh2z-t5FmQWfiG-9" edge="1">
          <mxGeometry relative="1" as="geometry">
            <mxPoint x="640" y="300" as="targetPoint" />
          </mxGeometry>
        </mxCell>
        <mxCell id="FMDbmBKh2z-t5FmQWfiG-9" value="" style="triangle;whiteSpace=wrap;html=1;" parent="1" vertex="1">
          <mxGeometry x="630" y="280" width="20" height="40" as="geometry" />
        </mxCell>
        <mxCell id="FMDbmBKh2z-t5FmQWfiG-20" style="edgeStyle=orthogonalEdgeStyle;rounded=0;orthogonalLoop=1;jettySize=auto;html=1;entryX=0;entryY=0.5;entryDx=0;entryDy=0;" parent="1" source="FMDbmBKh2z-t5FmQWfiG-12" target="FMDbmBKh2z-t5FmQWfiG-2" edge="1">
          <mxGeometry relative="1" as="geometry">
            <Array as="points">
              <mxPoint x="660" y="240" />
              <mxPoint x="660" y="180" />
            </Array>
          </mxGeometry>
        </mxCell>
        <mxCell id="FMDbmBKh2z-t5FmQWfiG-21" style="edgeStyle=orthogonalEdgeStyle;rounded=0;orthogonalLoop=1;jettySize=auto;html=1;entryX=0;entryY=0.5;entryDx=0;entryDy=0;" parent="1" source="FMDbmBKh2z-t5FmQWfiG-12" target="FMDbmBKh2z-t5FmQWfiG-15" edge="1">
          <mxGeometry relative="1" as="geometry">
            <Array as="points">
              <mxPoint x="660" y="240" />
              <mxPoint x="660" y="280" />
            </Array>
          </mxGeometry>
        </mxCell>
        <mxCell id="FMDbmBKh2z-t5FmQWfiG-12" value="" style="triangle;whiteSpace=wrap;html=1;" parent="1" vertex="1">
          <mxGeometry x="630" y="220" width="20" height="40" as="geometry" />
        </mxCell>
        <mxCell id="FMDbmBKh2z-t5FmQWfiG-23" style="edgeStyle=orthogonalEdgeStyle;rounded=0;orthogonalLoop=1;jettySize=auto;html=1;entryX=0;entryY=0.75;entryDx=0;entryDy=0;" parent="1" source="FMDbmBKh2z-t5FmQWfiG-15" target="FMDbmBKh2z-t5FmQWfiG-22" edge="1">
          <mxGeometry relative="1" as="geometry">
            <Array as="points">
              <mxPoint x="870" y="280" />
              <mxPoint x="870" y="240" />
            </Array>
          </mxGeometry>
        </mxCell>
        <mxCell id="FMDbmBKh2z-t5FmQWfiG-15" value="RAM" style="shape=internalStorage;whiteSpace=wrap;html=1;backgroundOutline=1;" parent="1" vertex="1">
          <mxGeometry x="690" y="240" width="160" height="80" as="geometry" />
        </mxCell>
        <mxCell id="FMDbmBKh2z-t5FmQWfiG-33" style="edgeStyle=orthogonalEdgeStyle;rounded=0;orthogonalLoop=1;jettySize=auto;html=1;entryX=0;entryY=0.25;entryDx=0;entryDy=0;" parent="1" source="FMDbmBKh2z-t5FmQWfiG-22" target="FMDbmBKh2z-t5FmQWfiG-31" edge="1">
          <mxGeometry relative="1" as="geometry">
            <Array as="points">
              <mxPoint x="931" y="230" />
              <mxPoint x="931" y="320" />
            </Array>
          </mxGeometry>
        </mxCell>
        <mxCell id="FMDbmBKh2z-t5FmQWfiG-38" style="edgeStyle=orthogonalEdgeStyle;rounded=0;orthogonalLoop=1;jettySize=auto;html=1;entryX=0;entryY=0.5;entryDx=0;entryDy=0;" parent="1" source="FMDbmBKh2z-t5FmQWfiG-22" target="FMDbmBKh2z-t5FmQWfiG-37" edge="1">
          <mxGeometry relative="1" as="geometry" />
        </mxCell>
        <mxCell id="MJMVSWdc8R0oQq0Kkiug-38" style="edgeStyle=orthogonalEdgeStyle;rounded=0;orthogonalLoop=1;jettySize=auto;html=1;entryX=0;entryY=0.25;entryDx=0;entryDy=0;" parent="1" source="FMDbmBKh2z-t5FmQWfiG-22" target="MJMVSWdc8R0oQq0Kkiug-28" edge="1">
          <mxGeometry relative="1" as="geometry">
            <Array as="points">
              <mxPoint x="930" y="230" />
              <mxPoint x="930" y="120" />
              <mxPoint x="370" y="120" />
            </Array>
          </mxGeometry>
        </mxCell>
        <mxCell id="FMDbmBKh2z-t5FmQWfiG-22" value="" style="triangle;whiteSpace=wrap;html=1;" parent="1" vertex="1">
          <mxGeometry x="890" y="210" width="20" height="40" as="geometry" />
        </mxCell>
        <mxCell id="FMDbmBKh2z-t5FmQWfiG-27" style="edgeStyle=orthogonalEdgeStyle;rounded=0;orthogonalLoop=1;jettySize=auto;html=1;entryX=0.25;entryY=0;entryDx=0;entryDy=0;" parent="1" source="FMDbmBKh2z-t5FmQWfiG-25" target="8APynYQwXsZGjhNRSon1-1" edge="1">
          <mxGeometry relative="1" as="geometry" />
        </mxCell>
        <mxCell id="FMDbmBKh2z-t5FmQWfiG-25" value="" style="triangle;whiteSpace=wrap;html=1;" parent="1" vertex="1">
          <mxGeometry x="940.83" y="420" width="20" height="40" as="geometry" />
        </mxCell>
        <mxCell id="FMDbmBKh2z-t5FmQWfiG-34" style="edgeStyle=orthogonalEdgeStyle;rounded=0;orthogonalLoop=1;jettySize=auto;html=1;entryX=0;entryY=0.75;entryDx=0;entryDy=0;" parent="1" target="FMDbmBKh2z-t5FmQWfiG-31" edge="1">
          <mxGeometry relative="1" as="geometry">
            <Array as="points">
              <mxPoint x="900.83" y="359" />
              <mxPoint x="910.83" y="359" />
            </Array>
            <mxPoint x="900.83" y="349.8461497791618" as="sourcePoint" />
          </mxGeometry>
        </mxCell>
        <mxCell id="FMDbmBKh2z-t5FmQWfiG-50" style="edgeStyle=orthogonalEdgeStyle;rounded=0;orthogonalLoop=1;jettySize=auto;html=1;entryX=0.25;entryY=0;entryDx=0;entryDy=0;" parent="1" source="FMDbmBKh2z-t5FmQWfiG-28" target="FMDbmBKh2z-t5FmQWfiG-46" edge="1">
          <mxGeometry relative="1" as="geometry">
            <Array as="points">
              <mxPoint x="560" y="340" />
              <mxPoint x="560" y="320" />
            </Array>
          </mxGeometry>
        </mxCell>
        <mxCell id="MJMVSWdc8R0oQq0Kkiug-34" style="edgeStyle=orthogonalEdgeStyle;rounded=0;orthogonalLoop=1;jettySize=auto;html=1;entryX=0;entryY=0.25;entryDx=0;entryDy=0;" parent="1" source="FMDbmBKh2z-t5FmQWfiG-28" target="MJMVSWdc8R0oQq0Kkiug-27" edge="1">
          <mxGeometry relative="1" as="geometry">
            <Array as="points">
              <mxPoint x="560" y="340" />
              <mxPoint x="560" y="130" />
              <mxPoint x="320" y="130" />
            </Array>
          </mxGeometry>
        </mxCell>
        <mxCell id="FMDbmBKh2z-t5FmQWfiG-28" value="Imm" style="ellipse;shape=cloud;whiteSpace=wrap;html=1;" parent="1" vertex="1">
          <mxGeometry x="855.83" y="320" width="70" height="30" as="geometry" />
        </mxCell>
        <mxCell id="FMDbmBKh2z-t5FmQWfiG-32" style="edgeStyle=orthogonalEdgeStyle;rounded=0;orthogonalLoop=1;jettySize=auto;html=1;entryX=0;entryY=0.75;entryDx=0;entryDy=0;" parent="1" source="FMDbmBKh2z-t5FmQWfiG-31" target="FMDbmBKh2z-t5FmQWfiG-25" edge="1">
          <mxGeometry relative="1" as="geometry">
            <Array as="points">
              <mxPoint x="920.83" y="450" />
            </Array>
          </mxGeometry>
        </mxCell>
        <mxCell id="FMDbmBKh2z-t5FmQWfiG-31" value="" style="triangle;whiteSpace=wrap;html=1;rotation=90;" parent="1" vertex="1">
          <mxGeometry x="910.83" y="360" width="20" height="40" as="geometry" />
        </mxCell>
        <mxCell id="FMDbmBKh2z-t5FmQWfiG-35" value="Control" style="rounded=0;whiteSpace=wrap;html=1;" parent="1" vertex="1">
          <mxGeometry x="1050.83" y="200" width="120" height="60" as="geometry" />
        </mxCell>
        <mxCell id="FMDbmBKh2z-t5FmQWfiG-39" style="edgeStyle=orthogonalEdgeStyle;rounded=0;orthogonalLoop=1;jettySize=auto;html=1;entryX=0;entryY=0.5;entryDx=0;entryDy=0;" parent="1" source="FMDbmBKh2z-t5FmQWfiG-37" target="FMDbmBKh2z-t5FmQWfiG-35" edge="1">
          <mxGeometry relative="1" as="geometry" />
        </mxCell>
        <mxCell id="FMDbmBKh2z-t5FmQWfiG-40" style="edgeStyle=orthogonalEdgeStyle;rounded=0;orthogonalLoop=1;jettySize=auto;html=1;entryX=0.517;entryY=0.111;entryDx=0;entryDy=0;entryPerimeter=0;exitX=0.5;exitY=1;exitDx=0;exitDy=0;" parent="1" source="FMDbmBKh2z-t5FmQWfiG-37" target="FMDbmBKh2z-t5FmQWfiG-28" edge="1">
          <mxGeometry relative="1" as="geometry">
            <Array as="points">
              <mxPoint x="990" y="270" />
              <mxPoint x="892" y="270" />
            </Array>
            <mxPoint x="900.0300000000003" y="323.99" as="targetPoint" />
          </mxGeometry>
        </mxCell>
        <mxCell id="FMDbmBKh2z-t5FmQWfiG-37" value="IL" style="rounded=1;whiteSpace=wrap;html=1;" parent="1" vertex="1">
          <mxGeometry x="950.83" y="210" width="79.17" height="40" as="geometry" />
        </mxCell>
        <mxCell id="FMDbmBKh2z-t5FmQWfiG-49" style="edgeStyle=orthogonalEdgeStyle;rounded=0;orthogonalLoop=1;jettySize=auto;html=1;entryX=0;entryY=0.75;entryDx=0;entryDy=0;" parent="1" source="FMDbmBKh2z-t5FmQWfiG-46" target="FMDbmBKh2z-t5FmQWfiG-9" edge="1">
          <mxGeometry relative="1" as="geometry">
            <Array as="points">
              <mxPoint x="620" y="310" />
              <mxPoint x="620" y="310" />
            </Array>
          </mxGeometry>
        </mxCell>
        <mxCell id="MJMVSWdc8R0oQq0Kkiug-44" style="edgeStyle=orthogonalEdgeStyle;rounded=0;orthogonalLoop=1;jettySize=auto;html=1;entryX=0;entryY=0.5;entryDx=0;entryDy=0;" parent="1" source="FMDbmBKh2z-t5FmQWfiG-46" target="MJMVSWdc8R0oQq0Kkiug-40" edge="1">
          <mxGeometry relative="1" as="geometry" />
        </mxCell>
        <mxCell id="FMDbmBKh2z-t5FmQWfiG-46" value="&lt;font face=&quot;Helvetica&quot;&gt;+&lt;/font&gt;" style="shape=offPageConnector;whiteSpace=wrap;html=1;fontFamily=Times New Roman;rotation=-90;" parent="1" vertex="1">
          <mxGeometry x="580" y="290" width="40" height="40" as="geometry" />
        </mxCell>
        <mxCell id="FMDbmBKh2z-t5FmQWfiG-52" style="edgeStyle=orthogonalEdgeStyle;rounded=0;orthogonalLoop=1;jettySize=auto;html=1;entryX=0;entryY=0.5;entryDx=0;entryDy=0;" parent="1" source="FMDbmBKh2z-t5FmQWfiG-51" target="MGtDL9aF6XLDopK0zCwk-3" edge="1">
          <mxGeometry relative="1" as="geometry" />
        </mxCell>
        <mxCell id="FMDbmBKh2z-t5FmQWfiG-51" value="" style="triangle;whiteSpace=wrap;html=1;" parent="1" vertex="1">
          <mxGeometry x="360" y="490" width="20" height="40" as="geometry" />
        </mxCell>
        <mxCell id="FMDbmBKh2z-t5FmQWfiG-54" style="edgeStyle=orthogonalEdgeStyle;rounded=0;orthogonalLoop=1;jettySize=auto;html=1;entryX=0;entryY=0.5;entryDx=0;entryDy=0;" parent="1" source="FMDbmBKh2z-t5FmQWfiG-53" target="MGtDL9aF6XLDopK0zCwk-4" edge="1">
          <mxGeometry relative="1" as="geometry" />
        </mxCell>
        <mxCell id="FMDbmBKh2z-t5FmQWfiG-53" value="" style="triangle;whiteSpace=wrap;html=1;" parent="1" vertex="1">
          <mxGeometry x="360" y="550" width="20" height="40" as="geometry" />
        </mxCell>
        <mxCell id="FMDbmBKh2z-t5FmQWfiG-61" style="edgeStyle=orthogonalEdgeStyle;rounded=0;orthogonalLoop=1;jettySize=auto;html=1;entryX=0;entryY=0.5;entryDx=0;entryDy=0;" parent="1" source="FMDbmBKh2z-t5FmQWfiG-60" target="MGtDL9aF6XLDopK0zCwk-2" edge="1">
          <mxGeometry relative="1" as="geometry" />
        </mxCell>
        <mxCell id="FMDbmBKh2z-t5FmQWfiG-60" value="" style="triangle;whiteSpace=wrap;html=1;" parent="1" vertex="1">
          <mxGeometry x="360" y="430" width="20" height="40" as="geometry" />
        </mxCell>
        <mxCell id="FMDbmBKh2z-t5FmQWfiG-63" style="edgeStyle=orthogonalEdgeStyle;rounded=0;orthogonalLoop=1;jettySize=auto;html=1;entryX=0;entryY=0.5;entryDx=0;entryDy=0;" parent="1" source="FMDbmBKh2z-t5FmQWfiG-62" target="MGtDL9aF6XLDopK0zCwk-1" edge="1">
          <mxGeometry relative="1" as="geometry" />
        </mxCell>
        <mxCell id="FMDbmBKh2z-t5FmQWfiG-62" value="" style="triangle;whiteSpace=wrap;html=1;" parent="1" vertex="1">
          <mxGeometry x="360" y="370" width="20" height="40" as="geometry" />
        </mxCell>
        <mxCell id="MJMVSWdc8R0oQq0Kkiug-5" style="edgeStyle=orthogonalEdgeStyle;rounded=0;orthogonalLoop=1;jettySize=auto;html=1;entryX=0;entryY=0.75;entryDx=0;entryDy=0;" parent="1" source="MJMVSWdc8R0oQq0Kkiug-1" target="FMDbmBKh2z-t5FmQWfiG-62" edge="1">
          <mxGeometry relative="1" as="geometry">
            <Array as="points">
              <mxPoint x="760" y="490" />
              <mxPoint x="760" y="360" />
              <mxPoint x="340" y="360" />
              <mxPoint x="340" y="400" />
            </Array>
          </mxGeometry>
        </mxCell>
        <mxCell id="MJMVSWdc8R0oQq0Kkiug-1" value="" style="triangle;whiteSpace=wrap;html=1;" parent="1" vertex="1">
          <mxGeometry x="720" y="470" width="20" height="40" as="geometry" />
        </mxCell>
        <mxCell id="MJMVSWdc8R0oQq0Kkiug-8" style="edgeStyle=orthogonalEdgeStyle;rounded=0;orthogonalLoop=1;jettySize=auto;html=1;entryX=0;entryY=0.5;entryDx=0;entryDy=0;" parent="1" source="MJMVSWdc8R0oQq0Kkiug-7" target="MGtDL9aF6XLDopK0zCwk-5" edge="1">
          <mxGeometry relative="1" as="geometry" />
        </mxCell>
        <mxCell id="MJMVSWdc8R0oQq0Kkiug-7" value="" style="triangle;whiteSpace=wrap;html=1;" parent="1" vertex="1">
          <mxGeometry x="180" y="200" width="20" height="40" as="geometry" />
        </mxCell>
        <mxCell id="MJMVSWdc8R0oQq0Kkiug-10" style="edgeStyle=orthogonalEdgeStyle;rounded=0;orthogonalLoop=1;jettySize=auto;html=1;entryX=0;entryY=0.5;entryDx=0;entryDy=0;" parent="1" source="MJMVSWdc8R0oQq0Kkiug-9" target="MGtDL9aF6XLDopK0zCwk-6" edge="1">
          <mxGeometry relative="1" as="geometry" />
        </mxCell>
        <mxCell id="MJMVSWdc8R0oQq0Kkiug-9" value="" style="triangle;whiteSpace=wrap;html=1;" parent="1" vertex="1">
          <mxGeometry x="180" y="260" width="20" height="40" as="geometry" />
        </mxCell>
        <mxCell id="MJMVSWdc8R0oQq0Kkiug-19" style="edgeStyle=orthogonalEdgeStyle;rounded=0;orthogonalLoop=1;jettySize=auto;html=1;entryX=0;entryY=0.25;entryDx=0;entryDy=0;" parent="1" source="MJMVSWdc8R0oQq0Kkiug-16" target="FMDbmBKh2z-t5FmQWfiG-51" edge="1">
          <mxGeometry relative="1" as="geometry">
            <Array as="points">
              <mxPoint x="430" y="290" />
              <mxPoint x="430" y="330" />
              <mxPoint x="320" y="330" />
              <mxPoint x="320" y="500" />
            </Array>
          </mxGeometry>
        </mxCell>
        <mxCell id="MJMVSWdc8R0oQq0Kkiug-23" style="edgeStyle=orthogonalEdgeStyle;rounded=0;orthogonalLoop=1;jettySize=auto;html=1;entryX=0;entryY=0.25;entryDx=0;entryDy=0;exitX=0.5;exitY=1;exitDx=0;exitDy=0;startArrow=none;" parent="1" source="MJMVSWdc8R0oQq0Kkiug-59" target="FMDbmBKh2z-t5FmQWfiG-9" edge="1">
          <mxGeometry relative="1" as="geometry">
            <mxPoint x="460" y="290" as="sourcePoint" />
            <Array as="points">
              <mxPoint x="470" y="290" />
              <mxPoint x="470" y="280" />
              <mxPoint x="610" y="280" />
              <mxPoint x="610" y="290" />
            </Array>
          </mxGeometry>
        </mxCell>
        <mxCell id="MJMVSWdc8R0oQq0Kkiug-24" style="edgeStyle=orthogonalEdgeStyle;rounded=0;orthogonalLoop=1;jettySize=auto;html=1;entryX=0;entryY=0.25;entryDx=0;entryDy=0;" parent="1" source="MJMVSWdc8R0oQq0Kkiug-16" target="MJMVSWdc8R0oQq0Kkiug-9" edge="1">
          <mxGeometry relative="1" as="geometry">
            <Array as="points">
              <mxPoint x="430" y="290" />
              <mxPoint x="430" y="260" />
              <mxPoint x="340" y="260" />
              <mxPoint x="340" y="250" />
              <mxPoint x="160" y="250" />
              <mxPoint x="160" y="270" />
            </Array>
          </mxGeometry>
        </mxCell>
        <mxCell id="MJMVSWdc8R0oQq0Kkiug-39" style="edgeStyle=orthogonalEdgeStyle;rounded=0;orthogonalLoop=1;jettySize=auto;html=1;exitX=1;exitY=0.5;exitDx=0;exitDy=0;entryX=0;entryY=0.5;entryDx=0;entryDy=0;" parent="1" source="MJMVSWdc8R0oQq0Kkiug-16" target="MJMVSWdc8R0oQq0Kkiug-17" edge="1">
          <mxGeometry relative="1" as="geometry" />
        </mxCell>
        <mxCell id="MJMVSWdc8R0oQq0Kkiug-16" value="&lt;font face=&quot;Helvetica&quot;&gt;+&lt;/font&gt;" style="shape=offPageConnector;whiteSpace=wrap;html=1;fontFamily=Times New Roman;rotation=-90;" parent="1" vertex="1">
          <mxGeometry x="380" y="270" width="40" height="40" as="geometry" />
        </mxCell>
        <mxCell id="MJMVSWdc8R0oQq0Kkiug-20" style="edgeStyle=orthogonalEdgeStyle;rounded=0;orthogonalLoop=1;jettySize=auto;html=1;entryX=0;entryY=0.25;entryDx=0;entryDy=0;" parent="1" source="MJMVSWdc8R0oQq0Kkiug-17" target="FMDbmBKh2z-t5FmQWfiG-53" edge="1">
          <mxGeometry relative="1" as="geometry">
            <Array as="points">
              <mxPoint x="440" y="230" />
              <mxPoint x="440" y="340" />
              <mxPoint x="310" y="340" />
              <mxPoint x="310" y="560" />
            </Array>
          </mxGeometry>
        </mxCell>
        <mxCell id="MJMVSWdc8R0oQq0Kkiug-22" style="edgeStyle=orthogonalEdgeStyle;rounded=0;orthogonalLoop=1;jettySize=auto;html=1;entryX=0;entryY=0.25;entryDx=0;entryDy=0;exitX=0.5;exitY=1.085;exitDx=0;exitDy=0;exitPerimeter=0;" parent="1" source="MJMVSWdc8R0oQq0Kkiug-17" target="FMDbmBKh2z-t5FmQWfiG-12" edge="1">
          <mxGeometry relative="1" as="geometry">
            <Array as="points">
              <mxPoint x="450" y="230" />
              <mxPoint x="450" y="220" />
              <mxPoint x="610" y="220" />
              <mxPoint x="610" y="230" />
            </Array>
          </mxGeometry>
        </mxCell>
        <mxCell id="MJMVSWdc8R0oQq0Kkiug-25" style="edgeStyle=orthogonalEdgeStyle;rounded=0;orthogonalLoop=1;jettySize=auto;html=1;entryX=0;entryY=0.25;entryDx=0;entryDy=0;startArrow=none;" parent="1" source="MJMVSWdc8R0oQq0Kkiug-63" target="MJMVSWdc8R0oQq0Kkiug-7" edge="1">
          <mxGeometry relative="1" as="geometry">
            <Array as="points">
              <mxPoint x="160" y="190" />
              <mxPoint x="160" y="210" />
            </Array>
          </mxGeometry>
        </mxCell>
        <mxCell id="MJMVSWdc8R0oQq0Kkiug-17" value="&lt;font face=&quot;Helvetica&quot;&gt;+&lt;/font&gt;" style="shape=offPageConnector;whiteSpace=wrap;html=1;fontFamily=Times New Roman;rotation=-90;" parent="1" vertex="1">
          <mxGeometry x="380" y="210" width="40" height="40" as="geometry" />
        </mxCell>
        <mxCell id="MJMVSWdc8R0oQq0Kkiug-31" style="edgeStyle=orthogonalEdgeStyle;rounded=0;orthogonalLoop=1;jettySize=auto;html=1;entryX=0.25;entryY=0;entryDx=0;entryDy=0;exitX=1;exitY=0.5;exitDx=0;exitDy=0;" parent="1" source="MJMVSWdc8R0oQq0Kkiug-27" target="MJMVSWdc8R0oQq0Kkiug-16" edge="1">
          <mxGeometry relative="1" as="geometry">
            <Array as="points">
              <mxPoint x="310" y="300" />
            </Array>
          </mxGeometry>
        </mxCell>
        <mxCell id="MJMVSWdc8R0oQq0Kkiug-27" value="" style="triangle;whiteSpace=wrap;html=1;rotation=90;" parent="1" vertex="1">
          <mxGeometry x="300" y="140" width="20" height="40" as="geometry" />
        </mxCell>
        <mxCell id="MJMVSWdc8R0oQq0Kkiug-30" style="edgeStyle=orthogonalEdgeStyle;rounded=0;orthogonalLoop=1;jettySize=auto;html=1;entryX=0.25;entryY=0;entryDx=0;entryDy=0;" parent="1" source="MJMVSWdc8R0oQq0Kkiug-28" target="MJMVSWdc8R0oQq0Kkiug-17" edge="1">
          <mxGeometry relative="1" as="geometry" />
        </mxCell>
        <mxCell id="MJMVSWdc8R0oQq0Kkiug-28" value="" style="triangle;whiteSpace=wrap;html=1;rotation=90;" parent="1" vertex="1">
          <mxGeometry x="350" y="140" width="20" height="40" as="geometry" />
        </mxCell>
        <mxCell id="MJMVSWdc8R0oQq0Kkiug-36" style="edgeStyle=orthogonalEdgeStyle;rounded=0;orthogonalLoop=1;jettySize=auto;html=1;entryX=0;entryY=0.75;entryDx=0;entryDy=0;" parent="1" source="MJMVSWdc8R0oQq0Kkiug-35" target="MJMVSWdc8R0oQq0Kkiug-27" edge="1">
          <mxGeometry relative="1" as="geometry">
            <mxPoint x="360" y="130" as="targetPoint" />
          </mxGeometry>
        </mxCell>
        <mxCell id="MJMVSWdc8R0oQq0Kkiug-35" value="0x1" style="ellipse;shape=cloud;whiteSpace=wrap;html=1;" parent="1" vertex="1">
          <mxGeometry x="260" y="90" width="40" height="20" as="geometry" />
        </mxCell>
        <mxCell id="MJMVSWdc8R0oQq0Kkiug-42" style="edgeStyle=orthogonalEdgeStyle;rounded=0;orthogonalLoop=1;jettySize=auto;html=1;exitX=0.5;exitY=1;exitDx=0;exitDy=0;" parent="1" source="MJMVSWdc8R0oQq0Kkiug-40" edge="1">
          <mxGeometry relative="1" as="geometry">
            <mxPoint x="630" y="250" as="targetPoint" />
            <Array as="points">
              <mxPoint x="630" y="250" />
              <mxPoint x="630" y="250" />
            </Array>
          </mxGeometry>
        </mxCell>
        <mxCell id="MJMVSWdc8R0oQq0Kkiug-40" value="&lt;font face=&quot;Helvetica&quot;&gt;+&lt;/font&gt;" style="shape=offPageConnector;whiteSpace=wrap;html=1;fontFamily=Times New Roman;rotation=-90;" parent="1" vertex="1">
          <mxGeometry x="580" y="230" width="40" height="40" as="geometry" />
        </mxCell>
        <mxCell id="MJMVSWdc8R0oQq0Kkiug-47" style="edgeStyle=orthogonalEdgeStyle;rounded=0;orthogonalLoop=1;jettySize=auto;html=1;entryX=0.25;entryY=1;entryDx=0;entryDy=0;" parent="1" source="MJMVSWdc8R0oQq0Kkiug-45" target="FMDbmBKh2z-t5FmQWfiG-35" edge="1">
          <mxGeometry relative="1" as="geometry">
            <Array as="points">
              <mxPoint x="1031" y="280" />
              <mxPoint x="1081" y="280" />
            </Array>
          </mxGeometry>
        </mxCell>
        <mxCell id="MJMVSWdc8R0oQq0Kkiug-45" value="Carry" style="rounded=1;whiteSpace=wrap;html=1;" parent="1" vertex="1">
          <mxGeometry x="1010.83" y="325" width="40" height="20" as="geometry" />
        </mxCell>
        <mxCell id="MJMVSWdc8R0oQq0Kkiug-52" style="edgeStyle=orthogonalEdgeStyle;rounded=0;orthogonalLoop=1;jettySize=auto;html=1;entryX=0;entryY=0.25;entryDx=0;entryDy=0;" parent="1" source="MJMVSWdc8R0oQq0Kkiug-51" target="MJMVSWdc8R0oQq0Kkiug-1" edge="1">
          <mxGeometry relative="1" as="geometry" />
        </mxCell>
        <mxCell id="MJMVSWdc8R0oQq0Kkiug-51" value="" style="triangle;whiteSpace=wrap;html=1;" parent="1" vertex="1">
          <mxGeometry x="560" y="440" width="20" height="40" as="geometry" />
        </mxCell>
        <mxCell id="MJMVSWdc8R0oQq0Kkiug-54" style="edgeStyle=orthogonalEdgeStyle;rounded=0;orthogonalLoop=1;jettySize=auto;html=1;entryX=0;entryY=0.75;entryDx=0;entryDy=0;" parent="1" source="MJMVSWdc8R0oQq0Kkiug-53" target="MJMVSWdc8R0oQq0Kkiug-51" edge="1">
          <mxGeometry relative="1" as="geometry" />
        </mxCell>
        <mxCell id="MJMVSWdc8R0oQq0Kkiug-53" value="IO" style="rounded=1;whiteSpace=wrap;html=1;" parent="1" vertex="1">
          <mxGeometry x="400" y="630" width="80" height="40" as="geometry" />
        </mxCell>
        <mxCell id="rdxqJMFnQv4xC2RsRKWf-3" style="edgeStyle=orthogonalEdgeStyle;rounded=0;orthogonalLoop=1;jettySize=auto;html=1;entryX=0;entryY=0.5;entryDx=0;entryDy=0;" parent="1" source="MJMVSWdc8R0oQq0Kkiug-59" target="rdxqJMFnQv4xC2RsRKWf-2" edge="1">
          <mxGeometry relative="1" as="geometry">
            <Array as="points">
              <mxPoint x="430" y="330" />
              <mxPoint x="320" y="330" />
              <mxPoint x="320" y="750" />
            </Array>
          </mxGeometry>
        </mxCell>
        <mxCell id="MJMVSWdc8R0oQq0Kkiug-59" value="" style="ellipse;whiteSpace=wrap;html=1;aspect=fixed;fillColor=#000000;" parent="1" vertex="1">
          <mxGeometry x="425" y="285" width="10" height="10" as="geometry" />
        </mxCell>
        <mxCell id="MJMVSWdc8R0oQq0Kkiug-60" value="" style="edgeStyle=orthogonalEdgeStyle;rounded=0;orthogonalLoop=1;jettySize=auto;html=1;entryX=0;entryY=0.25;entryDx=0;entryDy=0;exitX=0.5;exitY=1;exitDx=0;exitDy=0;endArrow=none;" parent="1" source="MJMVSWdc8R0oQq0Kkiug-16" target="MJMVSWdc8R0oQq0Kkiug-59" edge="1">
          <mxGeometry relative="1" as="geometry">
            <mxPoint x="420" y="290" as="sourcePoint" />
            <mxPoint x="630" y="290" as="targetPoint" />
            <Array as="points" />
          </mxGeometry>
        </mxCell>
        <mxCell id="MJMVSWdc8R0oQq0Kkiug-61" value="" style="ellipse;whiteSpace=wrap;html=1;aspect=fixed;fillColor=#000000;" parent="1" vertex="1">
          <mxGeometry x="925.83" y="225" width="10" height="10" as="geometry" />
        </mxCell>
        <mxCell id="rdxqJMFnQv4xC2RsRKWf-4" style="edgeStyle=orthogonalEdgeStyle;rounded=0;orthogonalLoop=1;jettySize=auto;html=1;entryX=0;entryY=0.5;entryDx=0;entryDy=0;" parent="1" source="MJMVSWdc8R0oQq0Kkiug-63" target="rdxqJMFnQv4xC2RsRKWf-1" edge="1">
          <mxGeometry relative="1" as="geometry">
            <Array as="points">
              <mxPoint x="440" y="340" />
              <mxPoint x="310" y="340" />
              <mxPoint x="310" y="700" />
            </Array>
          </mxGeometry>
        </mxCell>
        <mxCell id="MJMVSWdc8R0oQq0Kkiug-63" value="" style="ellipse;whiteSpace=wrap;html=1;aspect=fixed;fillColor=#000000;" parent="1" vertex="1">
          <mxGeometry x="435" y="225" width="10" height="10" as="geometry" />
        </mxCell>
        <mxCell id="MJMVSWdc8R0oQq0Kkiug-64" value="" style="edgeStyle=orthogonalEdgeStyle;rounded=0;orthogonalLoop=1;jettySize=auto;html=1;entryX=0;entryY=0.25;entryDx=0;entryDy=0;endArrow=none;" parent="1" source="MJMVSWdc8R0oQq0Kkiug-17" target="MJMVSWdc8R0oQq0Kkiug-63" edge="1">
          <mxGeometry relative="1" as="geometry">
            <mxPoint x="420" y="230" as="sourcePoint" />
            <mxPoint x="180" y="210" as="targetPoint" />
            <Array as="points">
              <mxPoint x="440" y="230" />
              <mxPoint x="440" y="228" />
            </Array>
          </mxGeometry>
        </mxCell>
        <mxCell id="rdxqJMFnQv4xC2RsRKWf-11" style="edgeStyle=orthogonalEdgeStyle;rounded=0;orthogonalLoop=1;jettySize=auto;html=1;entryX=0;entryY=0.75;entryDx=0;entryDy=0;" parent="1" source="rdxqJMFnQv4xC2RsRKWf-1" target="rdxqJMFnQv4xC2RsRKWf-9" edge="1">
          <mxGeometry relative="1" as="geometry">
            <Array as="points">
              <mxPoint x="570" y="700" />
              <mxPoint x="570" y="550" />
            </Array>
          </mxGeometry>
        </mxCell>
        <mxCell id="rdxqJMFnQv4xC2RsRKWf-1" value="IRH" style="rounded=1;whiteSpace=wrap;html=1;" parent="1" vertex="1">
          <mxGeometry x="400" y="680" width="80" height="40" as="geometry" />
        </mxCell>
        <mxCell id="rdxqJMFnQv4xC2RsRKWf-8" style="edgeStyle=orthogonalEdgeStyle;rounded=0;orthogonalLoop=1;jettySize=auto;html=1;entryX=0;entryY=0.75;entryDx=0;entryDy=0;" parent="1" source="rdxqJMFnQv4xC2RsRKWf-2" target="rdxqJMFnQv4xC2RsRKWf-6" edge="1">
          <mxGeometry relative="1" as="geometry">
            <Array as="points">
              <mxPoint x="550" y="750" />
              <mxPoint x="550" y="510" />
            </Array>
          </mxGeometry>
        </mxCell>
        <mxCell id="rdxqJMFnQv4xC2RsRKWf-2" value="IRL" style="rounded=1;whiteSpace=wrap;html=1;" parent="1" vertex="1">
          <mxGeometry x="400" y="730" width="80" height="40" as="geometry" />
        </mxCell>
        <mxCell id="rdxqJMFnQv4xC2RsRKWf-7" style="edgeStyle=orthogonalEdgeStyle;rounded=0;orthogonalLoop=1;jettySize=auto;html=1;exitX=1;exitY=0.5;exitDx=0;exitDy=0;entryX=0;entryY=0.25;entryDx=0;entryDy=0;" parent="1" source="rdxqJMFnQv4xC2RsRKWf-6" target="MGtDL9aF6XLDopK0zCwk-10" edge="1">
          <mxGeometry relative="1" as="geometry" />
        </mxCell>
        <mxCell id="rdxqJMFnQv4xC2RsRKWf-6" value="" style="triangle;whiteSpace=wrap;html=1;" parent="1" vertex="1">
          <mxGeometry x="600" y="480" width="20" height="40" as="geometry" />
        </mxCell>
        <mxCell id="rdxqJMFnQv4xC2RsRKWf-10" style="edgeStyle=orthogonalEdgeStyle;rounded=0;orthogonalLoop=1;jettySize=auto;html=1;entryX=0;entryY=0.75;entryDx=0;entryDy=0;" parent="1" source="rdxqJMFnQv4xC2RsRKWf-9" target="MGtDL9aF6XLDopK0zCwk-10" edge="1">
          <mxGeometry relative="1" as="geometry">
            <Array as="points">
              <mxPoint x="640" y="540" />
              <mxPoint x="640" y="530" />
            </Array>
          </mxGeometry>
        </mxCell>
        <mxCell id="rdxqJMFnQv4xC2RsRKWf-9" value="" style="triangle;whiteSpace=wrap;html=1;" parent="1" vertex="1">
          <mxGeometry x="610" y="520" width="20" height="40" as="geometry" />
        </mxCell>
        <mxCell id="UMhXk1OgjcwLS_v_WNDF-3" style="edgeStyle=orthogonalEdgeStyle;rounded=0;orthogonalLoop=1;jettySize=auto;html=1;entryX=0;entryY=0.75;entryDx=0;entryDy=0;" parent="1" source="UMhXk1OgjcwLS_v_WNDF-2" target="MJMVSWdc8R0oQq0Kkiug-28" edge="1">
          <mxGeometry relative="1" as="geometry">
            <Array as="points">
              <mxPoint x="340" y="120" />
              <mxPoint x="350" y="120" />
            </Array>
          </mxGeometry>
        </mxCell>
        <mxCell id="UMhXk1OgjcwLS_v_WNDF-2" value="0x0" style="ellipse;shape=cloud;whiteSpace=wrap;html=1;" parent="1" vertex="1">
          <mxGeometry x="320" y="90" width="40" height="20" as="geometry" />
        </mxCell>
      </root>
    </mxGraphModel>
  </diagram>
</mxfile>
